<svg width="62" height="100" viewBox="0 0 62 100" fill="none" xmlns="http://www.w3.org/2000/svg">
<path d="M45.8462 99L45.8462 100C46.3984 100 46.8462 99.5523 46.8462 99L45.8462 99ZM16.1539 99L15.1539 99C15.1539 99.5523 15.6016 100 16.1539 100L16.1539 99ZM45.8462 30.25L45.8462 29.25C45.2939 29.25 44.8462 29.6977 44.8462 30.25L45.8462 30.25ZM61 30.25L61 31.25C61.4068 31.25 61.773 31.0036 61.9263 30.6268C62.0796 30.25 61.9894 29.818 61.6981 29.534L61 30.25ZM31 0.999997L31.6981 0.283997C31.3097 -0.0946693 30.6903 -0.0946692 30.3019 0.283997L31 0.999997ZM1.00001 30.25L0.301913 29.534C0.0106682 29.818 -0.0795508 30.25 0.0737307 30.6268C0.227012 31.0036 0.593247 31.25 1.00001 31.25L1.00001 30.25ZM16.1539 30.25L17.1539 30.25C17.1539 29.6977 16.7061 29.25 16.1539 29.25L16.1539 30.25ZM45.8462 98L16.1539 98L16.1539 100L45.8462 100L45.8462 98ZM44.8462 30.25L44.8462 99L46.8462 99L46.8462 30.25L44.8462 30.25ZM61 29.25L45.8462 29.25L45.8462 31.25L61 31.25L61 29.25ZM30.3019 1.716L60.3019 30.966L61.6981 29.534L31.6981 0.283997L30.3019 1.716ZM1.69811 30.966L31.6981 1.716L30.3019 0.283997L0.301913 29.534L1.69811 30.966ZM16.1539 29.25L1.00001 29.25L1.00001 31.25L16.1539 31.25L16.1539 29.25ZM17.1539 99L17.1539 30.25L15.1539 30.25L15.1539 99L17.1539 99Z" fill="black"/>
</svg>
