<svg width="63" height="100" viewBox="0 0 63 100" fill="none" xmlns="http://www.w3.org/2000/svg">
<path d="M16.843 1V0C16.2907 0 15.843 0.447715 15.843 1L16.843 1ZM46.5353 1H47.5353C47.5353 0.447715 47.0875 0 46.5353 0V1ZM16.843 69.75V70.75C17.3952 70.75 17.843 70.3023 17.843 69.75H16.843ZM1.68911 69.75V68.75C1.28235 68.75 0.916112 68.9964 0.76283 69.3732C0.609549 69.75 0.699768 70.182 0.991013 70.466L1.68911 69.75ZM31.6891 99L30.991 99.716C31.3794 100.095 31.9988 100.095 32.3872 99.716L31.6891 99ZM61.6891 69.75L62.3872 70.466C62.6785 70.182 62.7687 69.75 62.6154 69.3732C62.4621 68.9964 62.0959 68.75 61.6891 68.75V69.75ZM46.5353 69.75H45.5353C45.5353 70.3023 45.983 70.75 46.5353 70.75V69.75ZM16.843 2H46.5353V0H16.843V2ZM17.843 69.75V1H15.843V69.75H17.843ZM1.68911 70.75H16.843V68.75H1.68911V70.75ZM32.3872 98.284L2.38721 69.034L0.991013 70.466L30.991 99.716L32.3872 98.284ZM60.991 69.034L30.991 98.284L32.3872 99.716L62.3872 70.466L60.991 69.034ZM46.5353 70.75H61.6891V68.75H46.5353V70.75ZM45.5353 1V69.75H47.5353V1H45.5353Z" fill="black"/>
</svg>
